<?xml version="1.0" encoding="UTF-8"?>
<svg id="Layer_2" data-name="Layer 2" xmlns="http://www.w3.org/2000/svg" viewBox="0 0 2299.9 2559.73">
  <defs>
    <style>
      .cls-1 {
        fill: #b96390;
      }

      .cls-2 {
        fill: #31374d;
      }

      .cls-3 {
        fill: #fccfae;
      }

      .cls-4 {
        fill: #7b5586;
      }

      .cls-5 {
        fill: #c78a9a;
      }
    </style>
  </defs>
  <g id="_ÎÓÈ_1" data-name="—ÎÓÈ_1">
    <g>
      <path class="cls-4" d="M2299.9,1409.78c0,251.23-80.55,483.63-217.23,672.77-4.18,5.75-8.42,11.5-12.69,17.19-5.42,7.23-10.91,14.34-16.48,21.43-20.18,25.58-41.43,50.29-63.66,74.06-9.04,9.63-18.23,19.14-27.59,28.48-11.29,11.29-22.79,22.32-34.53,33.07-1.72,1.57-3.44,3.14-5.16,4.71-23.35,21.22-47.63,41.49-72.7,60.72-178.83,137.45-399.23,223.43-639.08,235.93-3.88.21-7.79.39-11.71.53-7.97.36-15.94.59-23.95.77-8.39.18-16.77.27-25.19.27h-.59c-2.07,0-4.15,0-6.25-.03-4.5-.03-9.01-.09-13.51-.15-8.68-.15-17.34-.39-25.93-.74-267.14-10.58-510.87-112.29-700.93-274.91-10.4-8.89-20.6-17.93-30.67-27.18-7.26-6.67-14.43-13.46-21.52-20.3-4.42-4.24-8.74-8.54-13.1-12.86-19.09-19.06-37.55-38.82-55.27-59.18-12.57-14.46-24.81-29.25-36.63-44.31-5.42-6.85-10.73-13.75-15.94-20.75-4.27-5.69-8.48-11.41-12.65-17.19C80.43,1893.06,0,1660.8,0,1409.78,0,774.67,514.84,259.83,1149.95,259.83s1149.95,514.84,1149.95,1149.95Z"/>
      <path class="cls-3" d="M2053.5,2121.17c-20.18,25.58-41.43,50.29-63.66,74.06-9.04,9.63-18.23,19.14-27.59,28.48-11.29,11.29-22.79,22.32-34.53,33.07-1.72,1.57-3.44,3.14-5.16,4.71-23.35,21.22-47.63,41.49-72.7,60.72-193.85,148.98-436.54,237.51-699.92,237.51h-.59c-2.02,0-4.06,0-6.1-.03-282.64-1.6-541.13-105.18-740.52-275.8-10.4-8.89-20.6-17.93-30.67-27.18-7.26-6.67-14.43-13.46-21.52-20.3-4.42-4.24-8.74-8.54-13.1-12.86-19.09-19.06-37.55-38.82-55.27-59.18-12.57-14.46-24.81-29.25-36.63-44.31,9.39-5.04,15.74-8.51,17.69-9.84,1.22-.86,2.43-1.66,3.67-2.46,2.84-1.9,5.75-3.73,8.65-5.54,27.18-16.72,57.46-29.7,91.19-38.17,7.05-1.81,14.17-3.47,21.28-5.04,7.94-1.75,15.91-3.41,23.86-4.92,7.23-1.42,14.43-2.76,21.58-4.03,1.24-.24,2.49-.44,3.73-.68,11-1.93,21.93-3.82,32.75-5.66,20.63-3.53,41.91-5.45,63.42-6.96,24.81-1.75,49.91-2.9,74.62-5.31,12.57-1.21,25.07-2.76,37.37-4.86,10.99-1.84,21.87-4.21,32.51-7.14,20.48-5.69,40.9-12.65,60.7-21.4,48.22-21.25,92.64-52.96,125.3-102.34,9.63-14.58,17.51-30.02,24-46.14,3.91-9.78,7.32-19.83,10.31-30.05,6.25-21.52,10.55-43.89,13.66-66.68,4.68-34.59,6.55-70.06,8.24-104.82.41-8.65.83-17.37,1.19-26.14,1.13-25.96,2.02-52.43,2.1-78.92.03-9.66-.03-19.29-.27-28.93-.06-3.44-.18-6.88-.3-10.31-.21-6.34-.47-12.65-.83-19-.06-1.24-.15-2.76-.27-4.48-1.19-19.95-4.53-67.9-4.89-70.47l232.44,19.44,232.44-19.44c-.33,2.52-3.59,49.2-4.8,69.61-.15,2.08-.24,3.88-.33,5.33-.56,9.78-.95,19.62-1.13,29.52-.03.24-.03.53-.03.8-.21,9.28-.27,18.61-.27,27.92,0,4.42.06,8.86.12,13.28v.27c.39,30.88,1.75,61.61,3.2,91.52.03.95.09,1.87.15,2.82,1.63,34.35,3.56,69.35,8.27,103.46,2.61,18.82,6.05,37.37,10.76,55.36.39,1.6.8,3.2,1.24,4.77,3.29,11.88,7.11,23.56,11.65,34.88,6.52,16.18,14.43,31.74,24.12,46.41,32.69,49.37,77.08,81.09,125.33,102.34,19.77,8.74,40.16,15.71,60.67,21.4,14.34,3.97,29.13,6.85,44.13,8.95,7.29,1.07,14.61,1.93,21.99,2.7,23.21,2.37,46.8,3.56,70.18,5.1,24.3,1.6,48.4,3.53,71.63,7.53,10.55,1.81,21.22,3.62,31.92,5.51.3.06.53.12.83.15,6.79,1.22,13.57,2.46,20.39,3.73,8.3,1.6,16.6,3.26,24.9,5.07,8.42,1.81,16.8,3.73,25.16,5.87,33.9,8.54,64.31,21.58,91.58,38.41,2.49,1.54,4.95,3.11,7.38,4.71.33.18.62.38.92.59,2.31,1.54,10.19,6.34,21.84,13.4Z"/>
      <path class="cls-5" d="M1397.65,1809.66c-172.45-13.1-292.69-51.72-400.62-157.13-10.61-10.34-39.45-20.72-75.75-30.64,1.13-25.96,2.02-52.43,2.1-78.92.03-9.66-.03-19.29-.27-28.93-.06-3.44-.18-6.88-.3-10.31-.21-6.34-.47-12.65-.83-19-.06-1.24-.15-2.76-.27-4.48l84.49,5.22c38.17,8.54,77,14.28,115.79,16,46.41,2.02,102.1-3.88,160.96-16.27l93.95-5.81,4.98-.3c-.39,1.99-4.48,42.23-5.36,53.55-.65,7.82-1.04,15.71-1.25,23.59v.27c-.15,5.93-.21,11.83-.21,17.75.12,25.31,1.72,50.59,3.44,75.07.03.5.06,1.01.12,1.51,1.63,34.35,3.56,69.35,8.27,103.46,2.61,18.82,6.05,37.37,10.76,55.36Z"/>
      <path class="cls-2" d="M1576.9,424.85c-29.98-16.66-51.14-36.68-78.99-47.55,3.62-16.8,10.88-32.14,19.84-47.06,11.1-18.48,23.19-37.2,26.26-59.31,2.97-21.43-5.51-38.03-15.46-55.51-2.02-83.41-58.81-167.09-134.36-199.68-38.04-16.41-79.28-18.65-119.62-12.79-27.85,4.04-55.27,11.04-83.21,14.45-13.05,1.59-26.23,2.42-39.37,1.67-14.06-.81-27.69-3.94-41.44-6.92-.87-.19-1.7-.16-2.47,0-21.53-7.32-43.65-10.79-67.17-8.2-58.05,6.38-111.38,41.15-151.05,88.91-19.56,16.19-37.69,34.54-52.55,54.64-24.48,33.13-40,77.47-27.63,119.15,6.6,22.25,22.5,40.46,20.57,64.95-1.89,23.9-32.01,63.61-52.14,73.04-197.48,92.55-196.3,325.77-197.44,390.86-1.96,111.71,78.99,185.69,110.17,289.61,2.08,6.92,36.03,50.14,41.81,46.84,2.02-1.15,3.23-3.52,4.2-5.82,10.13-24.21,12.79-55.63,19.15-81.46,6.32-25.68-14.95-85.68-6.48-110.42,17.15-50.11,39.35-97.82,65.62-141.6,25.6-42.66,55.56-84.64,91.11-115.26,17.36-14.95,36.45-27.17,57.27-32.93,19.08-5.28,38.49-3.79,57.31,2.22,66.22,21.17,513.82,458.24,516.1,472,1.29,7.81,51.27-36.04,51.39-43.62.02-1.05.02-2.11.03-3.16.72,2.95,4.64,4.27,6.06.95,6.37-14.88,13.17-29.58,19.98-44.24,6.26-13.48,12.42-27.98,21.79-39.38,187.44-228.15,8.92-526.46-59.31-564.38ZM821.42,244.58c-1.79-22.07,3.65-44.3,13.59-63.69,3.42-6.68,7.31-13.11,11.56-19.32-4.21,9.39-7.87,19.07-10.78,29.04-7.31,25-8.53,51.25-4.94,77.17,1.11,8.03,4.24,16.51,7.62,25.16-6.77-15.77-15.59-30.3-17.05-48.35ZM845.33,350.18c-2.54,4.78-5.59,9.11-9.03,13.1,9.65-17.12,12.48-39.18,6.89-57.67-.36-1.18-.75-2.35-1.14-3.51,6.28,16.4,11.26,33.05,3.28,48.09ZM1470.49,366.69c12.51-11.74,22.38-26.82,29.09-43.16,12.18-20.83,20.73-44.23,25.54-67.99,1.39-6.88,2.34-13.81,2.9-20.78,5.22,11.93,8.27,24.46,5.45,38.4-4.62,22.8-18.75,41.26-29.78,60.91-7.02,12.49-12.26,25.67-15.32,39.54-5.94-2.28-11.91-4.55-17.87-6.92Z"/>
      <path class="cls-3" d="M1644.8,1043.32c-.53,23.01-1.25,46.03-3.41,68.96-3.87,41.15-12.32,82.09-31.31,119.36-7.63,14.97-15.7,32.06-28.77,43.14-18.42,15.59-36.75,1.83-54.61,13.65-17.11,11.32-54.17,104.08-62.37,122.35-36.52,81.38-74.79,122.04-144.83,178.07-40.93,32.74-116.05,73.25-168.48,76.26-.37.02-.74.02-1.1,0-52.43-3.02-127.55-43.53-168.48-76.26-70.05-56.03-110.12-96.7-146.64-178.07-8.2-18.28-46.5-111.03-63.6-122.35-16.36-10.83-25.45,0-49.82-9.83-17.73-7.15-23.72-30.06-32.33-46.96-19-37.27-27.44-78.21-31.31-119.36-1.55-16.42-2.36-32.89-2.88-49.37-.02-.49-.03-.97-.05-1.45-.13-4.1-.24-8.19-.34-12.29-.01-.45-.03-.9-.04-1.35-.03-1.5-.07-3-.1-4.5-.11-4.99-.39-10.39-.33-15.83,0-.73.01-1.45.03-2.18.1-4.15.43-8.29,1.18-12.26.14-.77.3-1.52.47-2.27,2.04-8.66,6.37-16.34,15.28-21.23,8.01-4.39,17.73-4.24,25.22,1.12,16.53,11.84,22.44,32.21,27.45,50.82,2.57,9.53,10.07,29.51,10.36,35.84-1.49-32.43-1.56-132.47,3.64-164.58,22.87-141.44,121.47-232.5,242.7-295.09,159.5-82.35,355.08,404.92,591.51,433.35,21.44,2.58,12.32-46.9,31.08-60.34,7.48-5.35,17.22-5.51,25.22-1.12,19.65,10.79,17.06,35.12,16.64,53.77Z"/>
      <g>
        <path class="cls-1" d="M2082.66,2082.55c-4.18,5.75-8.42,11.5-12.69,17.19-5.42,7.23-10.91,14.34-16.48,21.43-20.18,25.58-41.43,50.29-63.66,74.06-9.04,9.63-18.23,19.14-27.59,28.48-11.29,11.29-22.79,22.32-34.53,33.07-1.72,1.57-3.44,3.14-5.16,4.71-23.35,21.22-47.63,41.49-72.7,60.72-178.83,137.45-399.23,223.43-639.08,235.93-3.88.21-7.79.39-11.71.53-7.97.36-15.94.59-23.95.77-8.39.18-16.77.27-25.19.27h-.59c-2.07,0-4.15,0-6.25-.03-4.5-.03-9.01-.09-13.51-.15-8.68-.15-17.34-.39-25.93-.74-267.14-10.58-510.87-112.29-700.93-274.91-10.4-8.89-20.6-17.93-30.67-27.18-7.26-6.67-14.43-13.46-21.52-20.3-4.42-4.24-8.74-8.54-13.1-12.86-19.09-19.06-37.55-38.82-55.27-59.18-12.57-14.46-24.81-29.25-36.63-44.31-5.42-6.85-10.73-13.75-15.94-20.75-4.27-5.69-8.48-11.41-12.65-17.19,17.57-14.73,36.42-27.95,56.6-39.33,29.73-16.8,63.27-29.7,101.09-37.85,23.68-5.1,47.63-9.07,71.33-12.65,11.11-1.69,22.2-3.32,33.16-4.92,68.16-9.96,143.71-5.19,210.45-20.98,20.78-4.92,41.43-10.94,61.44-18.49,55.95-21.07,101.65-68.64,129.93-120.53,4.36-8.06,8.21-16.21,11.62-24.42,11.35-27.68,17.46-56.22,21.13-85.41,16.15,30.08,35.42,58.5,57.64,84.49,14.08,16.42,29.19,31.86,45.34,46.23,15.11,13.45,31.24,25.75,46.74,38.79,15.06,12.65,29.55,26.05,41.61,41.64,5.81,7.53,10.82,15.5,14.97,23.95.15.27.3.56.41.83,4.74,9.84,8.3,20.27,10.46,31.15,1.87,9.4,2.9,18.88,3.41,28.39v.09c0,.09,0,.18.03.27v.03c.41,7.88.5,15.77.41,23.68v1.42c-.06,5.36-.15,10.73-.27,16.09-.21,9.78-.3,19.53-.3,29.31-.03.06-.03.12,0,.15,0,15.26.27,30.53.83,45.76.71,19.95,1.9,39.83,3.59,59.69.03.5.06,1.01.12,1.51.09,1.21.21,2.43.3,3.62.12,1.33.24,2.67.36,4,.12,1.27.24,2.55.36,3.82.12,1.27.24,2.55.39,3.82.18,2.02.39,4.09.59,6.13.06.47.09.95.15,1.45,0,.18.03.36.06.53.12,1.33.27,2.67.41,4,.03.24.03.44.06.68,2.04,19.06,4.5,38.02,7.41,56.96.03.03,0,.03,0,.06.18,1.24.36,2.46.56,3.67.06.47.15.92.21,1.36.06-.44.15-.89.24-1.36.03-.27.09-.53.12-.8,0-.09,0-.12.03-.18v-.09c7.65-49.31,12.36-99.01,14.17-148.89.92-25.04,1.07-50.12.56-75.22-.47-23.38-1.04-46.91,3.59-69.97,1.9-9.57,4.86-18.73,8.77-27.5v-.06c4.48-10.08,10.25-19.53,17.07-28.36,12.03-15.59,26.55-28.98,41.61-41.64,15.5-13.04,31.59-25.34,46.71-38.79,16.15-14.37,31.3-29.81,45.34-46.23,22.26-25.99,41.52-54.41,57.64-84.55,3.47,27.38,9.04,54.18,19.12,80.26,3.85,9.99,8.39,19.86,13.69,29.64,28.24,51.89,73.94,99.46,129.9,120.53,20,7.56,40.69,13.57,61.44,18.49,66.74,15.8,142.31,11.02,210.48,20.98,10.97,1.6,22.02,3.23,33.13,4.92,23.71,3.59,47.66,7.56,71.33,12.65,37.82,8.15,71.36,21.04,101.09,37.85,20.36,11.5,39.36,24.86,57.11,39.74Z"/>
        <g>
          <path class="cls-4" d="M1447.57,1908.42c-27.93,56.34-57.42,114.79-104.5,158.16-10.45,9.63-23.38,21.04-38.75,18.75-6.73-1-12.75-4.74-17.97-9.1-11.91-9.96-47.81-60.11-56.83-72.47-12.81-17.54-38.38-53.18-38.46-53.34,2.15,6.34,5.67,15.72,8.64,22.85,8.04,19.3,17.09,38.22,27.2,56.52,10.43,18.87,22.03,37.23,35.61,54.01,7.42,9.17,14.57,19.09,24.26,26.05,12.24,8.8,24.09,5.3,35.53-3.06,18.98-13.87,35.25-30.6,49.73-49.06,27.19-34.67,47.85-74.48,63.85-115.42,4.22-10.79,9.56-22.47,11.7-33.89Z"/>
          <path class="cls-4" d="M853.52,1908.42c27.93,56.34,57.42,114.79,104.5,158.16,10.45,9.63,23.38,21.04,38.75,18.75,6.73-1,12.75-4.74,17.97-9.1,11.91-9.96,47.8-60.11,56.83-72.47,12.81-17.54,38.38-53.18,38.46-53.34-2.15,6.34-5.67,15.72-8.64,22.85-8.04,19.3-17.09,38.22-27.2,56.52-10.43,18.87-22.03,37.23-35.61,54.01-7.42,9.17-14.57,19.09-24.26,26.05-12.24,8.8-24.09,5.3-35.53-3.06-18.98-13.87-35.25-30.6-49.73-49.06-27.19-34.67-47.85-74.48-63.85-115.42-4.22-10.79-9.56-22.47-11.7-33.89Z"/>
          <path class="cls-4" d="M1184.48,2145.2c-.21-11.54-.44-23.08-.85-34.61-.81-22.73-2.32-45.49-5.75-67.86-1.88-12.28-4.33-24.57-4.13-37.15.2-12.42,3.27-48.5,3.27-48.5,0,0-11.79,21.18-13.37,31.61-1.56,10.29-1.89,20.92-2.31,31.36-.92,22.62-.85,45.28-.6,67.93.5,44.71-.78,89.78-5.21,134.28-2.45,24.66-4.24,48.91-11.31,72.19-1.08,3.56,3.22,5.93,4.82,2.79,9.04-17.78,18.05-35.68,24.78-55.03,3.32-9.54,6.03-19.41,7.78-29.58,1.9-11.02,2.76-22.28,3.04-33.53.29-11.3.04-22.6-.16-33.9Z"/>
          <path class="cls-4" d="M1110.33,2137.3c.21-11.39.44-22.79.85-34.17.98-27.11,4.44-54.59,7.68-81.72,1.47-12.29,2.13-24.63,2.9-36.97.59-9.49-1.79-31.79-1.79-31.79,12.48,23.59,15.62,47.02,16.22,73.31.78,34.31-.23,67.63,1.26,101.94,1.21,27.95,3.76,57.82,6.58,85.68,2.46,24.35,2.85,45.99,6.73,71.09.56,3.64-3.23,5.86-4.84,2.75-9.08-17.56-18.13-35.23-24.88-54.34-3.33-9.42-6.05-19.17-7.82-29.2-1.91-10.89-2.77-22-3.06-33.11-.29-11.15-.04-22.32.17-33.47Z"/>
        </g>
      </g>
    </g>
  </g>
</svg>