<?xml version="1.0" encoding="UTF-8"?>
<svg id="Layer_2" data-name="Layer 2" xmlns="http://www.w3.org/2000/svg" viewBox="0 0 2299.89 2563.59">
  <defs>
    <style>
      .cls-1 {
        fill: #b96390;
      }

      .cls-2 {
        fill: #31374d;
      }

      .cls-3 {
        fill: #7b5586;
      }

      .cls-4 {
        fill: #fcd0ad;
      }

      .cls-5 {
        fill: #b94442;
      }

      .cls-6 {
        fill: #c78a9a;
      }

      .cls-7 {
        fill: #7d5485;
      }
    </style>
  </defs>
  <g id="_ÎÓÈ_1" data-name="—ÎÓÈ_1">
    <path class="cls-3" d="M2299.89,1413.64c0,216.41-59.78,418.86-163.75,591.73-27.92,46.48-59.06,90.82-93.09,132.71-186.98,230.23-461.19,386.76-772.32,419.22-6.33.68-12.69,1.28-19.05,1.84-33.51,2.95-67.45,4.45-101.75,4.45s-68.22-1.5-101.75-4.45c-6.36-.56-12.72-1.16-19.05-1.84-311.11-32.46-585.32-188.99-772.3-419.22-34.02-41.89-65.17-86.23-93.09-132.71C59.78,1832.5,0,1630.05,0,1413.64c0-439.38,246.43-821.21,608.62-1014.81,161.33-86.23,345.61-135.13,541.32-135.13s379.99,48.88,541.32,135.11c362.2,193.61,608.63,575.45,608.63,1014.82Z"/>
    <path class="cls-4" d="M1556.88,1797.47c-.35.56-2.07,2.46-3.73,4.27h-.03c-1.54,1.63-3.08,3.23-3.53,3.61-6.61,5.9-21.84,19.15-44.07,35.6-1,.74-2.04,1.51-3.11,2.28-66.53,48.66-191.74,122.69-335.39,119.37-4.8.09-9.6.12-14.37.06-4.78.06-9.58.03-14.38-.06-143.65,3.32-268.86-70.71-335.39-119.37-1.07-.77-2.11-1.54-3.11-2.28-22.26-16.45-37.47-29.7-44.07-35.6-.98-.86-6.61-6.81-7.32-7.88,2.13-1.54,15.7-24.36,16.83-26.79,23.56-49.82,18.85-117.3,21.6-171.63,2.38-46.91,3.98-93.85,5.13-140.8,0-.16.01-.33.01-.49.81-33.2,2.51-134.17,2.78-146.8,0,16.18,59.8,67.16,74.18,77.17,90.8,63.25,179.68,128.71,283.74,130.37,104.05-1.66,192.93-67.12,283.73-130.37,14.38-10.01,74.18-60.99,74.18-77.2.24,12.68.51,29.46.83,49.2,1.31,79.66,3.05,159.35,7.09,238.92,2.75,54.33-1.96,121.81,21.6,171.63,1.13,2.43,14.7,25.25,16.8,26.79Z"/>
    <path d="M1572.1,1785.63s-.01,0-.02.01c-.21,0-.21-.01.02-.01Z"/>
    <path class="cls-5" d="M999.27,1248.6s0,0,0,0c-.11-.12-.12-.13,0,0Z"/>
    <path d="M1530.44,1822.95s-.01,0-.02.01c-.21,0-.2-.01.02-.01Z"/>
    <path d="M1556.98,1802.57s-.01,0-.02.01c-.2,0-.2-.01.02-.01Z"/>
    <path d="M1590.56,1870.12s-.01,0-.02.01c-.22,0-.21-.01.02-.01Z"/>
    <path class="cls-6" d="M1556.88,1797.47c-.35.56-2.07,2.46-3.73,4.27h-.03c-375.64,11.97-523.08-104.06-703.42-296.78-16.8-17.96-36.33-33.19-57.76-46.71,0-.16.01-.33.01-.49.81-33.2,2.51-134.17,2.78-146.8,0,16.18,59.8,67.16,74.18,77.17,90.8,63.25,179.68,128.71,283.74,130.37,104.05-1.66,192.93-67.12,283.73-130.37,14.38-10.01,74.18-60.99,74.18-77.2.24,12.68.51,29.46.83,49.2,1.31,79.66,3.05,159.35,7.09,238.92,2.75,54.33-1.96,121.81,21.6,171.63,1.13,2.43,14.7,25.25,16.8,26.79Z"/>
    <path class="cls-4" d="M1731.48,707.63c-2.14-8.33-7.58-12.12-14.18-13.27-8.19-1.45-18.15,1.19-25.75,4.25-24.31,9.79-34.57,54.77-38.16,76.44,0-1.71-.98-3.12-1.17-4.85-21.99-200.57-5.28-413.86-320.17-485.34-57.58-13.07-120.91,21.87-182.12,27.24-61.21-5.36-124.54-40.31-182.12-27.24-314.88,71.48-298.18,284.77-320.17,485.34-.19,1.73-1.17,3.14-1.17,4.85-3.59-21.67-13.85-66.65-38.16-76.44-7.6-3.06-17.56-5.7-25.75-4.25-6.6,1.15-12.03,4.94-14.18,13.27-2.97,11.55-.59,26.37-.01,38.21,1.81,37.11,7.74,73.91,14.26,110.46,7.86,44.25,4.35,77.11,18.81,119.73,8.12,23.93,31.7,59.09,45.01,80.77,6.55,10.66,17.55,27.98,32.37,27.33,1.13-.04,14.84-1.2,16.55-7.72.02.01.03.01.04.02,1.4,1.01,2.79,2.58,4.2,4.66,17.1,25.28,36.54,126.53,91.07,236.7.19.37.37.75.55,1.12.87,1.76,1.75,3.51,2.64,5.26,2.76,5.47,5.61,10.95,8.55,16.44,9.76,18.23,45.22,60.1,88.25,104.26,48.46,49.73,104.61,112.14,171.17,136.95,26.32,9.81,57.02,14.93,88.08,14.97,31.06-.04,61.76-5.15,88.08-14.97,66.55-24.81,122.71-87.22,171.17-136.95,43.03-44.16,78.48-86.03,88.25-104.26,2.94-5.49,5.79-10.97,8.55-16.44.89-1.75,1.76-3.5,2.64-5.26.19-.37.37-.74.56-1.12,54.52-110.17,73.97-211.43,91.07-236.7,1.41-2.08,2.8-3.65,4.2-4.66.01,0,.03,0,.04-.02,1.71,6.53,15.42,7.68,16.55,7.72,14.82.65,25.82-16.67,32.37-27.33,13.31-21.68,36.89-56.84,45.01-80.77,14.46-42.62,10.95-75.48,18.81-119.73,6.53-36.55,12.46-73.35,14.26-110.46.57-11.85,2.95-26.67-.01-38.21Z"/>
    <path class="cls-2" d="M1585.25,154.95C1488.03,51.23,1317.74-.09,1149.94,0c-167.8-.09-338.08,51.23-435.31,154.95-146.86,156.67-121.17,419.15-82.35,611.93,10.04,45.31.03,116.48,35.29,185.67-.06-7.48,16.03-128.45,28.14-168.69,39.3-130.53-88.73-342.77,212.72-422.65,57.16-15.15,168.77,10.84,229.36,14.39.42.02.85.04,1.27.06.42-.02.85-.04,1.27-.06,3.07-.18,6.28-.42,9.6-.71,3.32.29,6.53.53,9.6.71.42.02.85.04,1.27.06.42-.02.85-.04,1.27-.06,60.6-3.55,172.2-29.54,229.36-14.39,301.45,79.87,173.42,292.12,212.72,422.65,12.12,40.24,28.2,161.21,28.14,168.69,35.26-69.18,25.25-140.35,35.29-185.67,38.82-192.78,64.51-455.26-82.35-611.93Z"/>
    <path class="cls-1" d="M2136.14,2005.37c-27.92,46.48-59.06,90.82-93.09,132.71-186.98,230.23-461.19,386.76-772.32,419.22-6.33.68-12.69,1.28-19.05,1.84-33.51,2.95-67.45,4.45-101.75,4.45s-68.22-1.5-101.75-4.45c-6.36-.56-12.72-1.16-19.05-1.84-311.11-32.46-585.32-188.99-772.3-419.22-34.02-41.89-65.17-86.23-93.09-132.71,92.2-49.63,246.94-128.72,293.9-150.82,59.45-27.95,117.15-60.63,170.95-98.39,26.81-18.83,48.47-40.97,66.94-68,.53-.78,1.06-1.57,1.59-2.34v-.02s0-.02.02-.02c19.29-28.36,37.56-57.46,56.18-86.25,9.28-14.31,25.74-31.71,35.1-45.98.05.49.17,1.06.37,1.74v.05c.31,1.01.77,2.22,1.36,3.6.02.03.03.09.05.14,0,.02.02.02.02.03.05.19.1.39.17.61.03.15.07.29.12.44.17.58.34,1.21.55,1.86.05.15.09.31.14.46.14.49.29,1.02.44,1.55.03.1.05.2.08.31.07.22.14.44.2.67.14.44.27.92.41,1.38.07.24.14.48.2.72.55,1.81,1.14,3.79,1.81,5.94.19.61.39,1.23.58,1.86.41,1.3.84,2.66,1.28,4.06.22.65.43,1.3.65,1.96.15.49.32,1.01.49,1.52,1.23,3.79,2.63,7.9,4.2,12.3.26.73.53,1.48.8,2.23,1.14,3.22,2.39,6.58,3.72,10.08.53,1.38,1.06,2.78,1.62,4.2.82,2.13,1.69,4.32,2.59,6.55.89,2.22,1.81,4.47,2.78,6.79.32.78.65,1.55.97,2.34.46,1.11.94,2.23,1.43,3.38,2.42,5.65,5.05,11.53,7.88,17.62.61,1.31,1.24,2.64,1.88,3.99.58,1.18,1.14,2.37,1.72,3.56.14.29.27.58.41.89.49,1.01.99,2.01,1.48,3.04.46.96.94,1.93,1.43,2.9,3.24,6.51,6.7,13.2,10.42,20.04.92,1.71,1.86,3.41,2.81,5.13,2.64,4.76,5.41,9.58,8.31,14.48.7,1.18,1.4,2.35,2.12,3.55,1.3,2.15,2.61,4.31,3.94,6.5,1.6,2.59,3.22,5.22,4.91,7.84,1.43,2.27,2.9,4.54,4.4,6.82.14.24.29.46.44.68,1.04,1.57,2.08,3.15,3.14,4.74,1.11,1.65,2.23,3.31,3.38,4.98,3.48,5.12,7.13,10.28,10.92,15.49.95,1.31,1.93,2.63,2.9,3.96.8,1.09,1.62,2.18,2.44,3.26,6.7,8.95,13.85,17.99,21.46,27.03,1.33,1.59,2.68,3.17,4.04,4.76.92,1.09,1.86,2.18,2.81,3.27.44.49.87.99,1.31,1.48.94,1.07,1.89,2.17,2.85,3.26,1.38,1.55,2.78,3.12,4.2,4.67,1.21,1.35,2.44,2.69,3.68,4.04,1.35,1.47,2.69,2.92,4.06,4.37s2.75,2.9,4.13,4.35c5.22,5.46,10.61,10.9,16.2,16.34.43.38.84.78,1.26,1.19.1.1.17.19.27.27.48.46.94.9,1.42,1.36,1.33,1.26,2.66,2.54,4.01,3.8,7.78,7.32,15.88,14.58,24.35,21.75,1.38,1.18,2.78,2.35,4.18,3.51,1.59,1.33,3.19,2.66,4.81,3.97,3.45,2.83,6.96,5.63,10.54,8.43,1.09.85,2.2,1.72,3.33,2.59v.02c17.86,26.21,35.34,52.39,51.17,76.83.02,0,.02.02.02.02.22.32.43.65.63.97,2.81,4.33,5.56,8.6,8.25,12.81v.02c1.45,2.25,2.87,4.49,4.26,6.69,9.82,15.49,24.97,26.06,42.19,31.81,10.8,3.6,22.45,5.3,34.11,5.1,12.4.2,24.75-1.72,36.11-5.78,16.41-5.88,30.77-16.24,40.22-31.13.77-1.23,1.57-2.46,2.35-3.7v-.02c.63-1.01,1.26-1.98,1.91-2.98,2.69-4.21,5.46-8.51,8.27-12.86.2-.31.43-.61.61-.94.02,0,.02-.02.02-.02,252.98-191.04,274.39-400.07,275.68-398.26.02,0,.02.02.02.02.53.7,1.06,1.43,1.59,2.15,0,0,0,.02.02.02,9.45,12.6,22.12,26.64,29.83,38.55,9.33,14.39,18.56,28.87,27.85,43.3,9.31,14.41,18.69,28.79,28.35,42.98.53.77,1.06,1.55,1.59,2.34.89,1.28,1.76,2.52,2.66,3.79v.02c17.89,25.33,38.75,46.25,64.3,64.2,53.79,37.76,111.49,70.44,170.94,98.39,46.97,22.1,201.71,101.21,293.9,150.82Z"/>
    <path class="cls-3" d="M1270.74,2557.3c-6.33.68-12.69,1.28-19.05,1.84-33.51,2.95-67.45,4.45-101.75,4.45s-68.22-1.5-101.75-4.45c-6.36-.56-12.72-1.16-19.05-1.84,5.46-40.1,10.85-80.21,16.17-120.34,12.42-93.6,24.78-187.23,36.33-281.04.51-4.21,1.04-8.43,1.55-12.64-.1-.2-.19-.43-.27-.67-.49-1.4-1.01-2.78-1.53-4.14-1.43-3.72,1.13-8.46,5.1-8.7,20.52-1.28,40.97-2.61,61.54-2.8,21.39-.19,42.72.66,64.08,1.94,5.56.34,6.7,6.84,4.14,10.46.67,5.51,1.35,11.02,2.03,16.54,11.55,93.8,23.91,187.44,36.33,281.04,5.32,40.13,10.71,80.24,16.15,120.34Z"/>
    <path class="cls-7" d="M1117.78,2007.24c-102.14,112.56-248.14,258.71-269.1,271.89-3.15,1.98-7.59.34-8.39-3.19-16.11-70.67-119.34-435.6-119.45-505.67,0-4.16,216.19,257.97,221.15,256.43,4.96-1.53,139.25-85.08,144.31-78.54,9.48,12.26,17.5,25.44,23.83,39.38,2.92,6.41,5.48,12.98,7.66,19.7Z"/>
    <path class="cls-7" d="M1184.7,2007.24c102.14,112.56,248.14,258.71,269.1,271.89,3.15,1.98,7.59.34,8.39-3.19,16.11-70.67,119.34-435.6,119.45-505.67,0-4.16-216.19,257.97-221.15,256.43-4.96-1.53-139.25-85.08-144.31-78.54-9.48,12.26-17.5,25.44-23.83,39.38-2.92,6.41-5.48,12.98-7.66,19.7Z"/>
    <path class="cls-3" d="M1206.09,1939.74c-7.66.05-35.87.14-55.01.14s-45.09-.03-52.75-.08c-4.53-.03-90.08,103.11-87.66,105.8,13.91,15.5,26.74,31.94,37.9,49.54,10.3,16.24,18.53,33.28,26.92,50.53,3.83,7.88,8.82,15.22,16.54,19.72,7.87,4.59,17.06,6.98,25.9,8.87,10.58,2.26,21.28,3.42,32.01,3.52,10.73-.1,21.43-1.26,32.01-3.52,8.84-1.89,18.03-4.28,25.9-8.87,7.72-4.5,12.71-11.85,16.54-19.72,8.39-17.25,16.63-34.29,26.92-50.53,11.16-17.6,23.99-34.04,37.9-49.54,2.42-2.69-78.6-105.9-83.13-105.87Z"/>
    <path class="cls-1" d="M1105.2,1941.63l-242.31,276.15c-20.47-64.5-40.95-129-61.42-193.5-29.86-94.06-59.72-188.12-89.58-282.18-2.99-9.41-16.36-58.16-16.76-68.1-.53-13.02,71.41-91.59,93.29-120.43,3.27,4.08,52.42,249.02,316.78,388.07Z"/>
    <path class="cls-1" d="M1200.31,1941.63l242.31,276.15c20.47-64.5,40.95-129,61.42-193.5,29.86-94.06,59.72-188.12,89.58-282.18,2.99-9.41,16.36-58.16,16.76-68.1.53-13.02-71.41-91.59-93.29-120.43-3.27,4.08-75.26,269.39-316.78,388.07Z"/>
  </g>
</svg>